<svg width="79" height="79" viewBox="0 0 79 79" fill="none" xmlns="http://www.w3.org/2000/svg">
<g clip-path="url(#clip0_353_62)">
<path d="M39.7987 78.0312C60.914 78.0312 78.0314 60.9139 78.0314 39.7986C78.0314 18.6833 60.914 1.56592 39.7987 1.56592C18.6834 1.56592 1.56604 18.6833 1.56604 39.7986C1.56604 60.9139 18.6834 78.0312 39.7987 78.0312Z" fill="url(#paint0_linear_353_62)"/>
<path d="M39.7986 60.7927C39.8384 45.6244 39.8649 30.4561 39.9048 15.2878C40.8337 15.0356 41.7626 14.7702 42.6916 14.5181L42.5854 57.1831C42.174 57.8068 41.7096 58.4704 41.192 59.1472C40.7143 59.7576 40.2365 60.3017 39.7986 60.7927Z" fill="black"/>
<path d="M71.0111 46.7657C64.827 47.7477 56.3603 49.9373 47.615 55.219C44.6158 57.0238 42.028 58.9481 39.7986 60.806L39.8119 56.002C42.3731 54.2105 45.558 52.3128 49.4198 50.707C58.0457 47.1107 65.9284 46.6197 71.0111 46.7657Z" fill="black"/>
<path d="M59.7444 46.2349C61.6288 46.0624 63.5 46.1155 65.3844 46.1951C67.2688 46.3012 69.14 46.4605 70.9846 46.8321C69.1002 47.0046 67.229 46.9515 65.3446 46.8719C63.4602 46.7657 61.6023 46.6065 59.7444 46.2349Z" fill="black"/>
<path d="M60.6865 51.0387C62.0932 49.8443 63.699 48.9419 65.3976 48.212C67.0962 47.5087 68.8612 46.9646 70.7058 46.7788C69.0205 47.4822 67.3484 48.1191 65.6763 48.8358C63.9776 49.5391 62.3586 50.3088 60.6865 51.0387Z" fill="black"/>
<path d="M33.9861 37.6353C34.4107 38.1793 34.8221 38.7102 35.2468 39.2543C34.8221 39.8249 34.4107 40.3955 33.9861 40.9662L20.5031 44.5625L18.8708 43.3549L19.906 41.4307C24.5905 40.1567 29.2883 38.896 33.9861 37.6353Z" fill="#E30613"/>
<path d="M33.7074 18.9238C34.225 19.1892 34.7558 19.4679 35.2601 19.7201C34.7823 20.4499 34.2913 21.1931 33.8136 21.923L20.3173 25.5061L18.6851 24.325L19.7334 22.4405C24.3914 21.2727 29.0361 20.0916 33.7074 18.9238Z" fill="#E30613"/>
<path d="M37.6355 41.6034V56.4665L35.9634 57.8732L34.2781 56.4665V41.6034C34.8354 40.9929 35.3928 40.3958 35.9502 39.7986C36.5341 40.3825 37.0782 40.9929 37.6355 41.6034Z" fill="#E30613"/>
<path d="M34.0127 56.8645C34.4241 57.3953 34.8488 57.9129 35.2734 58.4304C34.9018 59.0674 34.5435 59.7044 34.172 60.3414L20.6757 63.9245L19.0435 62.7434L20.0918 60.859C24.71 59.5452 29.368 58.2048 34.0127 56.8645Z" fill="#E30613"/>
<path d="M37.6356 22.2416V37.1047L35.9369 38.5114L34.2383 37.1047V22.2416C34.7956 21.6311 35.3663 21.0339 35.9369 20.4368C36.5208 21.0207 37.0782 21.6311 37.6356 22.2416Z" fill="#E30613"/>
<path d="M47.441 41.4554C47.856 43.2399 48.6691 44.528 49.8802 45.3196C51.1024 46.1086 52.5783 46.302 54.3081 45.8998C55.8409 45.5433 57.0642 44.7742 57.978 43.5923C58.8918 42.4104 59.2048 41.2009 58.9171 39.9637C58.6091 38.639 56.9426 37.1051 53.9176 35.362L51.7216 34.107C48.9125 32.4984 47.2979 30.7908 46.8778 28.9843C46.389 26.8823 46.8078 24.9615 48.1344 23.222C49.4609 21.4826 51.3942 20.3175 53.9342 19.7268C55.2808 19.4137 56.4185 19.3684 57.3473 19.5909C58.2736 19.8025 58.8131 20.2368 58.9659 20.8936C59.1161 21.5396 58.9949 22.3583 58.6023 23.3497C57.222 21.7319 55.459 21.1725 53.3131 21.6715C51.9775 21.9821 50.9465 22.6604 50.2204 23.7063C49.5026 24.7388 49.2851 25.8626 49.5677 27.0779C49.7561 27.888 50.0477 28.4722 50.4426 28.8305C50.8484 29.1862 52.0009 29.8991 53.9 30.9692L55.695 31.9886C58.9713 33.8694 60.8411 35.8061 61.3045 37.7987C61.8443 40.1197 61.3727 42.2605 59.8898 44.2209C58.4044 46.1705 56.2658 47.4698 53.474 48.1191C51.6019 48.5544 49.9509 48.4768 48.521 47.886C47.102 47.2928 46.2373 46.3283 45.9267 44.9926C45.7154 44.0839 46.2201 42.9048 47.441 41.4554Z" fill="black"/>
</g>
<defs>
<linearGradient id="paint0_linear_353_62" x1="-5.25258" y1="18.1639" x2="75.9905" y2="57.1749" gradientUnits="userSpaceOnUse">
<stop stop-color="#EBD600"/>
<stop offset="0.9726" stop-color="#F17E35"/>
</linearGradient>
<clipPath id="clip0_353_62">
<rect width="79" height="79" fill="white"/>
</clipPath>
</defs>
</svg>
